#!OML:ASF H:\ManfredETheater\Project 1\Capture day 1\Session 1\subject.ASF
:FULLY-SPECIFIED
:DEGREES
61
root 0.575538 16.1524 8.29156 -182.894 -7.63088 -171.896
lowerback 17.0672 -0.968415 7.63881
upperback -0.247018 0.239373 4.6969
thorax -9.8796 -0.331141 0.775598
lowerneck -16.4066 -2.5117 -1.9527
upperneck 4.92161 -3.0479 -0.23092
head 4.1239 -1.61076 -0.0117577
rclavicle -1.43622e-014 -2.38542e-014
rhumerus -38.8892 -3.22854 -86.7312
rradius 68.8456
rwrist 6.21294
rhand -25.6467 2.64914
rfingers 7.12502
rthumb 0.886967 -27.3288
lclavicle -1.43622e-014 -2.38542e-014
lhumerus -60.4944 -7.00761 83.3327
lradius 92.0901
lwrist 19.9439
lhand -18.5144 -9.99457
lfingers 7.12502
lthumb 7.77383 19.8425
rfemur -13.6612 -12.4322 30.0091
rtibia 76.4241
rfoot 2.57607 -0.375975
rtoes -37.1042
lfemur -53.1183 7.24833 -19.4719
ltibia 50.0808
lfoot 0.849473 -4.54816
ltoes -16.2017
62
root 0.604699 16.1591 7.69322 -183.814 -8.27335 -171.617
lowerback 16.9828 -1.15166 7.39091
upperback -0.115426 -0.072879 4.58783
thorax -9.69768 -0.459297 0.865599
lowerneck -16.4036 -2.69411 -2.3506
upperneck 5.59395 -3.21858 0.208525
head 4.34755 -1.66678 0.168592
rclavicle -2.5842e-015 -1.98785e-014
rhumerus -40.352 -6.3635 -84.0443
rradius 64.6368
rwrist 6.64093
rhand -25.4023 2.07382
rfingers 7.12502
rthumb 1.12306 -27.903
lclavicle -2.5842e-015 -1.98785e-014
lhumerus -60.8815 -5.73226 79.5629
lradius 94.199
lwrist 20.4237
lhand -18.4296 -9.66426
lfingers 7.12502
lthumb 7.85568 20.1698
rfemur -13.7212 -12.1509 29.7529
rtibia 79.0586
rfoot 4.37129 0.880329
rtoes -34.4143
lfemur -51.6519 7.62288 -19.8698
ltibia 47.4044
lfoot 2.69578 -4.01884
ltoes -16.3558
63
root 0.635454 16.1492 7.0964 -184.786 -9.01238 -171.35
lowerback 16.9554 -1.4038 7.09365
upperback 0.0372862 -0.48262 4.46101
thorax -9.52685 -0.632927 0.988656
lowerneck -16.4207 -2.83287 -2.72027
upperneck 6.258 -3.3439 0.634027
head 4.5726 -1.70214 0.343869
rclavicle 1.96797e-014 -1.19271e-014
rhumerus -41.9094 -9.62255 -80.8064
rradius 60.4264
rwrist 6.80258
rhand -25.1888 1.53244
rfingers 7.12502
rthumb 1.32919 -28.4432
lclavicle 1.96797e-014 -1.19271e-014
lhumerus -60.956 -4.57888 75.5378
lradius 96.2249
lwrist 20.7571
lhand -18.559 -9.2692
lfingers 7.12502
lthumb 7.73082 20.5695
rfemur -14.0572 -12.0964 29.4779
rtibia 81.8704
rfoot 5.14431 1.15578
rtoes -31.6487
lfemur -50.2165 7.90305 -20.1754
ltibia 45.64
lfoot 4.16903 -3.7905
ltoes -14.8959
64
root 0.668804 16.1224 6.50327 -185.788 -9.82349 -171.102
lowerback 16.9948 -1.70322 6.73691
upperback 0.207952 -0.962179 4.31581
thorax -9.37345 -0.838936 1.1438
lowerneck -16.4508 -2.93298 -3.06053
upperneck 6.87368 -3.4301 1.03719
head 4.78467 -1.72053 0.511452
rclavicle 6.68413e-015 -3.33958e-014
rhumerus -43.6314 -12.9994 -76.9618
rradius 56.3927
rwrist 6.37073
rhand -25.0377 0.894938
rfingers 7.12502
rthumb 1.4752 -29.0797
lclavicle 6.68413e-015 -3.33958e-014
lhumerus -60.6718 -3.53444 71.2976
lradius 98.1403
lwrist 21.0603
lhand -18.9122 -8.72082
lfingers 7.12502
lthumb 7.38992 21.1301
rfemur -14.6945 -12.2446 29.1676
rtibia 84.7933
rfoot 5.23818 0.472791
rtoes -28.6077
lfemur -48.8621 8.11257 -20.4032
ltibia 44.8285
lfoot 5.12198 -3.88393
ltoes -12.2289
65
root 0.70541 16.0798 5.91605 -186.806 -10.726 -170.883
lowerback 17.1242 -2.04507 6.31774
upperback 0.38567 -1.50314 4.14831
thorax -9.26021 -1.07368 1.32883
lowerneck -16.4719 -2.9998 -3.36558
upperneck 7.41825 -3.48324 1.40472
head 4.97225 -1.72553 0.666358
rclavicle 5.09386e-014 3.57812e-015
rhumerus -45.6262 -16.4891 -72.4274
rradius 52.7066
rwrist 5.14902
rhand -24.966 0.118984
rfingers 7.12502
rthumb 1.54443 -29.8552
lclavicle 5.09386e-014 3.57812e-015
lhumerus -59.9987 -2.5672 66.8867
lradius 99.9007
lwrist 21.414
lhand -19.4658 -8.01444
lfingers 7.12502
lthumb 6.85549 21.8546
rfemur -15.641 -12.598 28.7905
rtibia 87.7386
rfoot 5.02381 -1.02715
rtoes -25.1438
lfemur -47.6194 8.23904 -20.574
ltibia 44.9817
lfoot 5.5205 -4.30707
ltoes -7.50879
66
root 0.745889 16.0233 5.3378 -187.834 -11.713 -170.695
lowerback 17.3802 -2.41892 5.84351
upperback 0.564382 -2.08859 3.95537
thorax -9.21194 -1.32976 1.53611
lowerneck -16.4718 -3.03907 -3.6301
upperneck 7.86704 -3.50952 1.72494
head 5.12483 -1.72079 0.803843
rclavicle -4.53478e-015 1.86858e-014
rhumerus -48.0009 -20.0394 -67.1264
rradius 49.5546
rwrist 3.09368
rhand -25.0203 -0.876205
rfingers 7.12502
rthumb 1.49197 -30.8507
lclavicle -4.53478e-015 1.86858e-014
lhumerus -58.9068 -1.61615 62.3571
lradius 101.457
lwrist 21.8636
lhand -20.2084 -7.10548
lfingers 7.12502
lthumb 6.13863 22.7856
rfemur -16.8943 -13.1208 28.3314
rtibia 90.6019
rfoot 4.63531 -3.12258
rtoes -21.5454
lfemur -46.5287 8.24423 -20.6539
ltibia 46.084
lfoot 5.24511 -4.96709
ltoes -1.52995
67
root 0.790984 15.9536 4.7713 -188.855 -12.7781 -170.557
lowerback 17.7782 -2.81222 5.30368
upperback 0.738694 -2.70525 3.73206
thorax -9.24038 -1.5998 1.76684
lowerneck -16.4086 -3.05385 -3.85166
upperneck 8.17323 -3.51373 2.00317
head 5.22058 -1.70831 0.92538
rclavicle -2.07854e-014 2.60408e-014
rhumerus -50.8671 -23.5518 -60.9961
rradius 47.1025
rwrist 0.385363
rhand -25.2628 -2.14543
rfingers 7.12502
rthumb 1.25776 -32.1215
lclavicle -2.07854e-014 2.60408e-014
lhumerus -57.3798 -0.597654 57.7756
lradius 102.745
lwrist 22.373
lhand -21.1046 -6.05093
lfingers 7.12502
lthumb 5.2733 23.8635
rfemur -18.4674 -13.7641 27.7732
rtibia 93.2856
rfoot 4.27011 -5.49257
rtoes -17.3081
lfemur -45.6225 8.05564 -20.6169
ltibia 48.0748
lfoot 4.27256 -5.62045
ltoes 4.98177
68
root 0.841824 15.8701 4.21776 -189.843 -13.928 -170.52
lowerback 18.3163 -3.20911 4.65017
upperback 0.908674 -3.34611 3.46507
thorax -9.33985 -1.87717 2.03477
lowerneck -16.2752 -3.04956 -4.0385
upperneck 8.33483 -3.50176 2.25514
head 5.25793 -1.68997 1.03649
rclavicle 8.69062e-015 1.0635e-014
rhumerus -54.299 -26.8533 -54.0439
rradius 45.4803
rwrist -2.69934
rhand -25.7467 -3.61936
rfingers 7.12502
rthumb 0.790411 -33.5976
lclavicle 8.69062e-015 1.0635e-014
lhumerus -55.4032 0.5916 53.2342
lradius 103.693
lwrist 22.8395
lhand -22.0822 -4.9257
lfingers 7.12502
lthumb 4.32938 25.01
rfemur -20.3645 -14.4794 27.0657
rtibia 95.7054
rfoot 3.7249 -8.00328
rtoes -12.9713
lfemur -44.9138 7.61164 -20.4963
ltibia 50.8376
lfoot 2.67716 -6.13832
ltoes 10.7429
69
root 0.899063 15.7729 3.67738 -190.775 -15.1847 -170.674
lowerback 18.996 -3.59059 3.7953
upperback 1.0762 -4.01104 3.13654
thorax -9.50074 -2.15685 2.37255
lowerneck -16.0775 -3.03254 -4.19609
upperneck 8.37118 -3.47995 2.48475
head 5.24409 -1.66858 1.13822
rclavicle 2.86157e-014 -2.52457e-014
rhumerus -58.2655 -29.7251 -46.3764
rradius 44.7138
rwrist -5.84821
rhand -26.5242 -5.1892
rfingers 7.12502
rthumb 0.0394396 -35.1689
lclavicle 2.86157e-014 -2.52457e-014
lhumerus -53.0195 2.02934 48.8646
lradius 104.265
lwrist 23.1432
lhand -23.1058 -3.85452
lfingers 7.12502
lthumb 3.34092 26.099
rfemur -22.5472 -15.2295 26.1019
rtibia 97.7809
rfoot 2.84038 -10.4653
rtoes -9.06143
lfemur -44.3822 6.88422 -20.3942
ltibia 54.2062
lfoot 0.625506 -6.44712
ltoes 14.9748
70
root 0.962441 15.6623 3.14917 -191.624 -16.5341 -171.093
lowerback 19.8102 -3.93164 2.67456
upperback 1.24156 -4.69321 2.73304
thorax -9.70857 -2.43224 2.8019
lowerneck -15.8182 -3.00114 -4.33213
upperneck 8.31499 -3.44548 2.70759
head 5.1901 -1.64174 1.23656
rclavicle -7.80354e-014 5.1684e-015
rhumerus -62.5941 -31.9512 -38.2525
rradius 44.7517
rwrist -8.80542
rhand -27.4975 -6.65042
rfingers 7.12502
rthumb -0.900632 -36.6283
lclavicle -7.80354e-014 5.1684e-015
lhumerus -50.2811 3.79352 44.8039
lradius 104.432
lwrist 23.1406
lhand -24.1901 -2.89495
lfingers 7.12502
lthumb 2.29373 27.0725
rfemur -24.971 -15.9412 24.7981
rtibia 99.4301
rfoot 1.6032 -12.6884
rtoes -5.99175
lfemur -43.9917 5.92219 -20.4095
ltibia 57.9801
lfoot -1.68021 -6.59854
ltoes 17.3593
